<?xml version="1.0" encoding="utf-8"?>
<!-- Generator: Adobe Illustrator 19.2.1, SVG Export Plug-In . SVG Version: 6.00 Build 0)  -->
<svg version="1.1" id="Layer_1" xmlns="http://www.w3.org/2000/svg" xmlns:xlink="http://www.w3.org/1999/xlink" x="0px" y="0px"
	 viewBox="0 0 100 100" enable-background="new 0 0 100 100" xml:space="preserve">
<path d="M98.9,49.3c0-0.3-0.2-0.7-0.4-0.9c-0.1-0.1-0.2-0.2-0.3-0.4L47.7,3.7c-1-0.9-2.6-0.8-3.6,0.2c-0.9,1-0.8,2.6,0.2,3.6
	l45.3,39.9h-86C2.1,47.5,1,48.6,1,50s1.1,2.5,2.5,2.5h86L44.3,92.5C43.2,93.4,43.1,95,44,96c0.4,0.5,0.9,0.8,1.6,0.9
	c0.1,0,0.2,0,0.3,0c0.6,0,1.3-0.2,1.8-0.7l50.5-44.4c0.1-0.1,0.2-0.2,0.3-0.3l0.2-0.3l0.1-0.1C99,50.7,99,50.4,99,50
	C99,49.7,99,49.5,98.9,49.3z"/>
</svg>
