<?xml version="1.0" encoding="utf-8"?>
<!-- Generator: Adobe Illustrator 19.2.1, SVG Export Plug-In . SVG Version: 6.00 Build 0)  -->
<svg version="1.1" id="Layer_1" xmlns="http://www.w3.org/2000/svg" xmlns:xlink="http://www.w3.org/1999/xlink" x="0px" y="0px"
	 viewBox="0 0 100 100" enable-background="new 0 0 100 100" xml:space="preserve">
<path d="M96.4,52.3L51.9,1.8c-0.1-0.1-0.2-0.2-0.4-0.3l-0.2-0.2l-0.1-0.1C51,1.2,50.5,1,50,1c-0.2,0-0.3,0-0.5,0.1
	c-0.1,0-0.1,0-0.2,0c-0.3,0-0.7,0.2-0.9,0.4c-0.1,0.1-0.2,0.2-0.4,0.3L3.6,52.3c-0.9,1-0.8,2.6,0.2,3.6c1,0.9,2.6,0.8,3.6-0.2
	l40-45.3v86c0,1.4,1.1,2.6,2.6,2.6c1.4,0,2.6-1.1,2.6-2.6v-86l39.9,45.3c0.5,0.5,1.1,0.8,1.8,0.9c0.6,0,1.3-0.2,1.8-0.6
	c0.5-0.4,0.9-0.9,1-1.6C97.1,53.7,96.9,52.9,96.4,52.3z"/>
</svg>
