<?xml version="1.0" encoding="utf-8"?>
<!-- Generator: Adobe Illustrator 19.2.1, SVG Export Plug-In . SVG Version: 6.00 Build 0)  -->
<svg version="1.1" id="Layer_1" xmlns="http://www.w3.org/2000/svg" xmlns:xlink="http://www.w3.org/1999/xlink" x="0px" y="0px"
	 viewBox="0 0 100 100" enable-background="new 0 0 100 100" xml:space="preserve">
<path d="M96.2,44L96.2,44c-1.1-0.9-2.7-0.9-3.7,0.1L52.5,89.5V3.6C52.5,2.1,51.5,1,50,1c-1.4,0-2.5,1.1-2.5,2.5v86L7.5,44.3
	c-0.5-0.5-1.1-0.9-1.8-0.9c-0.7,0-1.4,0.2-1.8,0.7C3.3,44.5,3,45.2,3,45.9c0,0.7,0.2,1.4,0.7,1.8l44.4,50.5c0.1,0.1,0.2,0.2,0.4,0.3
	l0.2,0.2l0.1,0.1C49.3,99,49.6,99,50,99c0.2,0,0.3,0,0.5-0.1c0.1,0,0.1,0,0.2,0c0.3,0,0.7-0.2,0.9-0.4c0.1-0.1,0.2-0.2,0.4-0.3
	l44.4-50.5C97.3,46.6,97.2,45,96.2,44z"/>
</svg>
