<?xml version="1.0" encoding="utf-8"?>
<!-- Generator: Adobe Illustrator 19.2.1, SVG Export Plug-In . SVG Version: 6.00 Build 0)  -->
<svg version="1.1" id="Layer_1" xmlns="http://www.w3.org/2000/svg" xmlns:xlink="http://www.w3.org/1999/xlink" x="0px" y="0px"
	 viewBox="0 0 100 100" enable-background="new 0 0 100 100" xml:space="preserve">
<path d="M96.4,47.5h-86L55.7,7.5c0.6-0.5,0.9-1.1,0.9-1.8c0-0.7-0.2-1.4-0.7-1.8c-0.5-0.6-1.1-0.9-1.8-0.9c-0.7,0-1.4,0.2-1.8,0.7
	L1.8,48.1c-0.1,0.1-0.2,0.2-0.3,0.4l-0.3,0.3l-0.1,0.4C1,49.4,1,49.7,1,50c0,0.2,0,0.3,0.1,0.5c0,0.1,0,0.1,0,0.2
	c0,0.3,0.2,0.7,0.4,0.9c0.1,0.1,0.2,0.2,0.3,0.4l50.5,44.4c0.5,0.4,1.2,0.7,1.8,0.7c0.7,0,1.4-0.3,1.9-0.9l0,0
	c0.9-1,0.8-2.6-0.2-3.6L10.4,52.6h86c1.4,0,2.6-1.1,2.6-2.6C99,48.7,97.8,47.5,96.4,47.5z"/>
</svg>
