<?xml version="1.0" encoding="utf-8"?>
<!-- Generator: Adobe Illustrator 19.0.1, SVG Export Plug-In . SVG Version: 6.00 Build 0)  -->
<svg version="1.1" id="Layer_1" xmlns="http://www.w3.org/2000/svg" xmlns:xlink="http://www.w3.org/1999/xlink" x="0px" y="0px"
   viewBox="0 0 100 100" style="enable-background:new 0 0 100 100;" xml:space="preserve">
<path d="M84.6,15.4C75.5,6.2,63.2,1.1,50,1.1C37,1,24.7,6.1,15.4,15.4C6.2,24.5,1.1,36.8,1.1,50C1,63,6.3,75.4,15.4,84.6
  c9.1,9.2,21.4,14.3,34.6,14.3c13,0.1,25.3-5,34.6-14.3C93.9,75.4,99,63.1,98.9,50C99,37,93.8,24.6,84.6,15.4z M67.3,61.5
  c1.7,1.7,1.7,4.2,0,5.8c-1.6,1.6-4.2,1.6-5.8,0L50,55.8L38.5,67.3c-1.6,1.6-4.2,1.6-5.8,0s-1.6-4.2,0-5.8L44.2,50L32.7,38.5
  c-1.6-1.6-1.6-4.2,0-5.8c1.6-1.6,4.2-1.6,5.8,0L50,44.2l11.5-11.5c1.6-1.6,4.2-1.6,5.8,0c1.7,1.6,1.7,4.1,0,5.8L55.8,50L67.3,61.5z"
  />
</svg>
