<?xml version="1.0" encoding="utf-8"?>
<!-- Generator: Adobe Illustrator 19.2.1, SVG Export Plug-In . SVG Version: 6.00 Build 0)  -->
<svg version="1.1" id="Layer_1" xmlns="http://www.w3.org/2000/svg" xmlns:xlink="http://www.w3.org/1999/xlink" x="0px" y="0px"
	 viewBox="0 0 100 100" enable-background="new 0 0 100 100" xml:space="preserve">
<g>
	<path d="M84.6,15.4C75.5,6.2,63.2,1.1,50,1.1C36.9,1,24.5,6.2,15.4,15.4C6.3,24.6,1.1,36.8,1.1,50C1,63.1,6.1,75.4,15.4,84.6
		C24.6,93.9,36.9,99,50,98.9c13.1,0.1,25.5-5.1,34.6-14.3c9.1-9.2,14.3-21.4,14.3-34.6C99,36.9,93.9,24.6,84.6,15.4z M78.8,79
		c-7.7,7.7-18,12-28.9,12C39,91,28.7,86.7,21,79S9,61,9,50.1c-0.1-11,4.2-21.2,12-28.9c7.7-7.7,18-12,28.9-12
		c11-0.1,21.2,4.2,28.9,12c7.7,7.7,12,18,12,28.9C90.9,61,86.6,71.3,78.8,79z"/>
	<path d="M67.3,32.7c-1.6-1.6-4.2-1.6-5.8,0L50,44.2L38.5,32.7c-1.6-1.6-4.2-1.6-5.8,0c-1.6,1.6-1.6,4.2,0,5.8L44.2,50L32.7,61.5
		c-1.6,1.6-1.6,4.2,0,5.8c1.6,1.6,4.2,1.6,5.8,0L50,55.8l11.5,11.5c1.6,1.6,4.2,1.6,5.8,0c1.6-1.6,1.6-4.2,0-5.8L55.8,50l11.5-11.5
		C69,36.8,69,34.3,67.3,32.7z"/>
</g>
</svg>
