<?xml version="1.0" encoding="utf-8"?>
<!-- Generator: Adobe Illustrator 22.1.0, SVG Export Plug-In . SVG Version: 6.00 Build 0)  -->
<svg version="1.1" id="Layer_1" xmlns="http://www.w3.org/2000/svg" xmlns:xlink="http://www.w3.org/1999/xlink" x="0px" y="0px"
	 viewBox="0 0 100 100" style="enable-background:new 0 0 100 100;" xml:space="preserve">
<g transform="translate(0,-952.36218)">
	<path d="M50,1038.7c-1.1,0-2.4-0.5-3.3-1.3l-26.9-25.3c-1.5-1.7-2.2-5-0.4-6.9c1.8-1.9,5.2-1.8,6.9,0l18.9,17.8v-65
		c0-2.6,2.1-4.7,4.7-4.7s4.7,2.1,4.7,4.7v65l18.9-17.8c1.6-1.6,5.1-1.9,6.9,0c1.8,1.9,1.2,5.3-0.4,6.9l-26.9,25.3
		C52.3,1038.3,51.3,1038.7,50,1038.7z"/>
	<path d="M18.4,1041.9c-2.6,0-4.7,2.1-4.7,4.7s2.1,4.7,4.7,4.7h63.2c2.6,0,4.7-2.1,4.7-4.7s-2.1-4.7-4.7-4.7H18.4z"/>
</g>
</svg>
