<?xml version="1.0" encoding="utf-8"?>
<!-- Generator: Adobe Illustrator 19.2.1, SVG Export Plug-In . SVG Version: 6.00 Build 0)  -->
<svg version="1.1" id="Layer_1" xmlns="http://www.w3.org/2000/svg" xmlns:xlink="http://www.w3.org/1999/xlink" x="0px" y="0px"
	 viewBox="0 0 100 100" style="enable-background:new 0 0 100 100;" xml:space="preserve">
<g>
	<path d="M90.7,26.8c-0.1-0.2-0.3-0.5-0.4-0.7L65.7,1.6c-0.2-0.2-0.4-0.3-0.7-0.4C64.8,1.1,64.6,1,64.3,1H11.2c-1.1,0-2,0.9-2,2v94
		c0,1.1,0.9,2,2,2h77.6c1.1,0,2-0.9,2-2V27.5C90.8,27.3,90.8,27,90.7,26.8z M66.3,8l17.5,17.5H66.3V8z M13.2,94.9V5.1h49v22.5
		c0,1.1,0.9,2,2,2h22.5v65.3H13.2z"/>
	<path d="M69.3,51.8c-5.9-0.2-11.4,0.6-16.4,2.2c-3.5-1.9-7.1-4.4-10.6-7.6c-0.7-6.2-2.1-11.7-3.5-15.6c-0.7-2-2.2-3.2-4.1-3.4
		c-2-0.2-4.2,0.9-5.4,2.8c-1.3,2-1.3,4.4,0,6.6l0,0c2.8,4.6,5.8,8.3,9,11.5c0.3,4.2,0.3,8.6-0.4,12.9c-5.3,3.5-9.4,7.4-11.9,10.5
		c-1.5,1.8-1.9,3.9-1.1,5.7c0.7,1.9,2.6,3.2,4.7,3.5c0.3,0,0.5,0,0.7,0c2,0,3.8-0.9,5-2.6c3.3-4.5,5.2-9.6,6.3-14.8
		c3.2-2,6.8-3.8,10.8-5.2c6.4,3.2,12.4,4.5,16.8,5c2.1,0.2,3.9-0.5,5.1-2.1c1.2-1.7,1.4-4.1,0.4-6.1S71.7,51.9,69.3,51.8z
		 M32.8,34.5L32.8,34.5c-0.6-1-0.4-1.8-0.1-2.3c0.4-0.6,1.1-0.9,1.5-0.9c0.3,0,0.5,0.3,0.7,0.8c0.8,2.3,1.7,5.3,2.4,8.8
		C35.8,39,34.3,36.9,32.8,34.5z M32.1,75.9c-0.6,0.9-1.4,1-2,0.9c-0.7-0.1-1.3-0.5-1.5-1c-0.2-0.6,0.1-1.2,0.5-1.6
		c1.7-2.1,4.2-4.6,7.3-7.1C35.5,70.2,34,73.2,32.1,75.9z M42.4,58.4c0.2-2.1,0.3-4.2,0.2-6.3c1.7,1.4,3.5,2.6,5.2,3.7
		C45.9,56.6,44.1,57.4,42.4,58.4z M71,58.9c-0.2,0.2-0.5,0.5-1.2,0.4c-2.9-0.4-6.7-1.1-10.9-2.7c3.2-0.6,6.7-0.9,10.2-0.8
		c0.9,0,1.6,0.4,1.9,1.1C71.4,57.6,71.3,58.4,71,58.9z"/>
</g>
</svg>
