<svg enable-background="new 0 0 60 60" viewBox="0 0 60 60" xmlns="http://www.w3.org/2000/svg"><path d="m42.5 22h-25c-.552 0-1 .447-1 1s.448 1 1 1h25c.552 0 1-.447 1-1s-.448-1-1-1z"/><path d="m17.5 16h10c.552 0 1-.447 1-1s-.448-1-1-1h-10c-.552 0-1 .447-1 1s.448 1 1 1z"/><path d="m42.5 30h-25c-.552 0-1 .447-1 1s.448 1 1 1h25c.552 0 1-.447 1-1s-.448-1-1-1z"/><path d="m42.5 38h-25c-.552 0-1 .447-1 1s.448 1 1 1h25c.552 0 1-.447 1-1s-.448-1-1-1z"/><path d="m42.5 46h-25c-.552 0-1 .447-1 1s.448 1 1 1h25c.552 0 1-.447 1-1s-.448-1-1-1z"/><path d="m38.914 0h-32.414v60h47v-45.414zm.586 3.414 10.586 10.586h-10.586zm-31 54.586v-56h29v14h14v42z"/></svg>