<?xml version="1.0" encoding="utf-8"?>
<!-- Generator: Adobe Illustrator 19.2.1, SVG Export Plug-In . SVG Version: 6.00 Build 0)  -->
<svg version="1.1" id="Layer_1" xmlns="http://www.w3.org/2000/svg" xmlns:xlink="http://www.w3.org/1999/xlink" x="0px" y="0px"
	 viewBox="0 0 100 100" style="enable-background:new 0 0 100 100;" xml:space="preserve">
<g>
	<path d="M81.2,73.1l-6.7,6.7V60.2c0-1.1-0.9-2-2-2s-2,0.9-2,2v19.6l-6.7-6.7c-0.8-0.8-2.1-0.8-2.9,0c-0.8,0.8-0.8,2.1,0,2.9
		L71,86.1c0.2,0.2,0.4,0.3,0.7,0.4c0.2,0.1,0.5,0.2,0.8,0.2s0.5-0.1,0.8-0.2c0.2-0.1,0.5-0.3,0.7-0.4l10.2-10.2
		c0.8-0.8,0.8-2.1,0-2.9S82,72.3,81.2,73.1z"/>
	<path d="M72.5,45.9C57.9,45.9,46,57.8,46,72.4S57.8,99,72.5,99S99,87.1,99,72.5S87.1,45.9,72.5,45.9z M72.5,94.9
		C60.1,94.9,50,84.8,50,72.5C50,60.1,60.1,50,72.5,50S95,60.1,95,72.5C94.9,84.8,84.8,94.9,72.5,94.9z"/>
	<path d="M43.9,86.8H5.1V5.1h40.8v18.4c0,1.1,0.9,2,2,2h18.4v14.3c0,1.1,0.9,2,2,2s2-0.9,2-2V23.5l0,0l0,0c0-0.2-0.1-0.4-0.1-0.6
		c0-0.1,0-0.1,0-0.2c-0.1-0.3-0.3-0.5-0.5-0.7L49.4,1.6c-0.2-0.2-0.4-0.3-0.7-0.4C48.5,1.1,48.2,1,48,1H3C1.9,1,1,1.9,1,3v85.8
		c0,1.1,0.9,2,2,2h40.8c1.1,0,2-0.9,2-2C45.9,87.7,45,86.8,43.9,86.8z M50,8l13.4,13.4H50V8z"/>
</g>
</svg>
