<?xml version="1.0" encoding="utf-8"?>
<!-- Generator: Adobe Illustrator 19.2.1, SVG Export Plug-In . SVG Version: 6.00 Build 0)  -->
<svg version="1.1" id="Layer_1" xmlns="http://www.w3.org/2000/svg" xmlns:xlink="http://www.w3.org/1999/xlink" x="0px" y="0px"
	 viewBox="0 0 100 100" style="enable-background:new 0 0 100 100;" xml:space="preserve">
<g>
	<path d="M78.2,57.6c-1.1,0-1.9,0.9-1.9,1.9v35.6H4.8V23.6h35.7c1.1,0,1.9-0.9,1.9-1.9s-0.9-1.9-1.9-1.9H2.9c-1.1,0-1.9,0.9-1.9,1.9
		V97c0,1.1,0.9,1.9,1.9,1.9h75.3c1.1,0,1.9-0.9,1.9-1.9V59.6C80.2,58.5,79.3,57.6,78.2,57.6z"/>
	<path d="M99,2.6c0-0.1,0-0.1,0-0.2c0-0.1,0-0.1-0.1-0.2c0-0.1-0.1-0.1-0.1-0.2c0,0,0-0.1-0.1-0.1c-0.1-0.2-0.3-0.4-0.5-0.5
		l-0.1-0.1c-0.1,0-0.1-0.1-0.2-0.1s-0.1,0-0.2-0.1c-0.1,0-0.1,0-0.2,0s-0.3,0-0.4,0H59.4c-1.1,0-1.9,0.9-1.9,1.9s0.9,1.9,1.9,1.9h33
		l-72,72c-0.8,0.8-0.8,2,0,2.7c0.4,0.4,0.9,0.6,1.4,0.6s1-0.2,1.4-0.6l72-72v33c0,1.1,0.9,1.9,1.9,1.9s1.9-0.9,1.9-1.9V3
		C99,2.8,99,2.7,99,2.6z"/>
</g>
</svg>
