<?xml version="1.0" encoding="utf-8"?>
<!-- Generator: Adobe Illustrator 22.1.0, SVG Export Plug-In . SVG Version: 6.00 Build 0)  -->
<svg version="1.1" id="Layer_1" xmlns="http://www.w3.org/2000/svg" xmlns:xlink="http://www.w3.org/1999/xlink" x="0px" y="0px"
	 viewBox="0 0 100 100" style="enable-background:new 0 0 100 100;" xml:space="preserve">
<g>
	<g>
		<g>
			<path d="M25.5,7.1V1H4.1C2.4,1,1,2.4,1,4.1v21.4h6.1V11.4l28.5,28.5l4.3-4.3L11.4,7.1H25.5z"/>
			<path d="M95.9,1H74.5v6.1h14.1L60.1,35.6l4.3,4.3l28.5-28.5v14.1H99V4.1C99,2.4,97.6,1,95.9,1z"/>
			<path d="M92.9,88.6L64.4,60.1l-4.3,4.3l28.5,28.5H74.5V99h21.4c1.7,0,3.1-1.4,3.1-3.1V74.5h-6.1V88.6z"/>
			<path d="M35.6,60.1L7.1,88.6V74.5H1v21.4C1,97.6,2.4,99,4.1,99h21.4v-6.1H11.4l28.5-28.5L35.6,60.1z"/>
		</g>
	</g>
</g>
</svg>
