<?xml version="1.0" encoding="utf-8"?>
<!-- Generator: Adobe Illustrator 19.2.1, SVG Export Plug-In . SVG Version: 6.00 Build 0)  -->
<svg version="1.1" id="Layer_1" xmlns="http://www.w3.org/2000/svg" xmlns:xlink="http://www.w3.org/1999/xlink" x="0px" y="0px"
	 viewBox="0 0 100 100" style="enable-background:new 0 0 100 100;" xml:space="preserve">
<path d="M50,5C25.2,5,5.1,25.1,5.1,49.9c0,24.8,20.1,44.9,44.9,44.9s44.9-20.2,44.9-44.9C94.9,25.1,74.8,5,50,5z M8.2,52.6h19.5
	c0.5,5.8,1.7,11.4,3.6,16.5H12.8C10.2,64.1,8.6,58.5,8.2,52.6z M69.3,49.5C69.3,49.5,69.3,49.6,69.3,49.5l-17.8,0.1V33.2h15.6
	C68.9,39.1,69.4,44.7,69.3,49.5z M51.5,30.2V9.7c7.5,6.6,12,13.7,14.6,20.5H51.5z M48.5,30.2H33.6c2.6-6.9,7.2-14,14.9-20.6V30.2z
	 M48.5,33.2v16.4h-18c-0.2-4.8,0.3-10.5,2.1-16.4H48.5z M27.5,49.6H8.1c0-5.8,1.3-11.4,3.5-16.4h17.9C27.8,39.1,27.3,44.8,27.5,49.6
	z M30.7,52.6h17.8v16.5h-14C32.5,64,31.2,58.4,30.7,52.6z M48.5,72.1v18.4c-4.7-4-9.4-10.5-12.8-18.4H48.5z M51.5,90.2V72.1h12.6
	C60.7,79.8,56.1,86.2,51.5,90.2z M51.5,69.1V52.6h17.6c-0.5,5.8-1.9,11.4-3.8,16.5H51.5z M72.2,52.6h19.6c-0.4,5.9-2,11.5-4.6,16.5
	H68.6C70.5,64,71.7,58.4,72.2,52.6z M72.4,49.6c0.1-4.8-0.4-10.5-2.1-16.4h18.1c2.2,5,3.4,10.6,3.5,16.4H72.4z M87,30.2H69.4
	c-2.6-7.3-7.2-14.9-14.9-22C68.6,9.7,80.6,18.3,87,30.2z M45.4,8.3c-7.8,7-12.4,14.7-15,21.9H13C19.4,18.3,31.4,9.8,45.4,8.3z
	 M14.5,72.1h17.9c3.3,8.1,8,14.9,12.9,19.4C32.3,90.1,21.1,82.7,14.5,72.1z M54.5,91.6c4.9-4.6,9.6-11.4,12.9-19.5h18.1
	C78.8,82.7,67.6,90.1,54.5,91.6z"/>
</svg>
