<?xml version="1.0" encoding="utf-8"?>
<!-- Generator: Adobe Illustrator 19.2.1, SVG Export Plug-In . SVG Version: 6.00 Build 0)  -->
<svg version="1.1" id="Layer_1" xmlns="http://www.w3.org/2000/svg" xmlns:xlink="http://www.w3.org/1999/xlink" x="0px" y="0px"
	 viewBox="0 0 100 100" style="enable-background:new 0 0 100 100;" xml:space="preserve">
<path id="tooltip" d="M50,99c27.1,0,49-21.9,49-49S77.1,1,50,1S1,22.9,1,50S22.9,99,50,99z M44,56c0-4.3,2.8-6.9,5.4-9.4
	c1.9-2,3.7-3.8,3.7-6c0-2.7-1.5-4.4-4.6-4.4c-3.2,0-5.4,2.3-5.8,6h-6.6c0.3-7.1,5.4-11.5,12.8-11.5c7.8,0,11.5,4.1,11.5,9.5
	c0,3.8-2.3,6.3-4.7,8.6c-2.5,2.5-5.2,4.6-5.4,7.7v1.6h-6.4L44,56L44,56z M42.6,65.7c0-2.4,2-4.4,4.5-4.4c2.4,0,4.5,1.9,4.5,4.4
	c0,2.4-2,4.3-4.5,4.3S42.6,68.1,42.6,65.7z"/>
</svg>
