<?xml version="1.0" encoding="utf-8"?>
<!-- Generator: Adobe Illustrator 22.0.1, SVG Export Plug-In . SVG Version: 6.00 Build 0)  -->
<svg version="1.1" id="Layer_1" xmlns="http://www.w3.org/2000/svg" xmlns:xlink="http://www.w3.org/1999/xlink" x="0px" y="0px"
	 viewBox="0 0 100 100" enable-background="new 0 0 100 100" xml:space="preserve">
<g>
	<path d="M50,1C23,1,1,23,1,50s22,49,49,49s49-22,49-49S77,1,50,1z M50,92.9C26.4,92.9,7.1,73.6,7.1,50C7.1,26.4,26.4,7.1,50,7.1
		c23.6,0,42.9,19.2,42.9,42.9C92.9,73.6,73.6,92.9,50,92.9z"/>
	<rect x="44.8" y="36.1" width="10.5" height="44.5"/>
	<path d="M50,19.4c-3.4,0-6.1,2.6-6.1,6.1c0,3.5,2.7,6.2,6.1,6.2s6.1-2.6,6.1-6.2C56.1,22,53.4,19.4,50,19.4z"/>
</g>
</svg>
