<?xml version="1.0" encoding="utf-8"?>
<!-- Generator: Adobe Illustrator 22.1.0, SVG Export Plug-In . SVG Version: 6.00 Build 0)  -->
<svg version="1.1" id="Layer_1" xmlns="http://www.w3.org/2000/svg" xmlns:xlink="http://www.w3.org/1999/xlink" x="0px" y="0px"
	 viewBox="0 0 100 100" style="enable-background:new 0 0 100 100;" xml:space="preserve">
<path d="M50,1C22.8,1,1,22.8,1,50s21.8,49,49,49s49-21.8,49-49S77.2,1,50,1z M32.9,46.7l5.6,5.6c0.9,0.9,0.9,2.2,0,3.1l-3.1,3.1
	c-0.9,0.9-2.2,0.9-3.1,0l-5.6-5.6C23,49.3,21,44.7,21,39.5c0-10.2,8.5-18.7,18.7-18.7c4.9,0,9.8,2,13.4,5.6l5.6,5.6
	c0.9,0.9,0.9,2.2,0,3.1l-3.1,3.1c-0.9,0.9-2.2,0.9-3.1,0l-5.6-5.6c-1.8-1.8-4.2-2.9-6.9-2.9c-5.3,0-9.8,4.5-9.8,9.8
	C30,42.4,31.1,44.9,32.9,46.7z M60.2,79c-4.9,0-9.8-2-13.4-5.6l-5.6-5.6c-0.9-0.9-0.9-2.2,0-3.1l3.1-3.1c0.9-0.9,2.2-0.9,3.1,0
	l5.6,5.6c1.8,1.8,4.2,2.9,6.9,2.9c5.3,0,9.8-4.5,9.8-9.8c0-2.7-1.1-5.1-2.9-6.9l-5.6-5.6c-0.9-0.9-0.9-2.2,0-3.1l3.1-3.1
	c0.9-0.9,2.2-0.9,3.1,0l5.6,5.6c3.6,3.6,5.6,8.2,5.6,13.4C79,70.5,70.5,79,60.2,79z"/>
</svg>
