<?xml version="1.0" encoding="utf-8"?>
<!-- Generator: Adobe Illustrator 19.2.1, SVG Export Plug-In . SVG Version: 6.00 Build 0)  -->
<svg version="1.1" id="Layer_1" xmlns="http://www.w3.org/2000/svg" xmlns:xlink="http://www.w3.org/1999/xlink" x="0px" y="0px"
	 viewBox="0 0 100 100" style="enable-background:new 0 0 100 100;" xml:space="preserve">
<g>
	<path d="M12.5,42.9c-4,0-7.3,3.4-7.3,7.6s3.3,7.6,7.3,7.6s7.3-3.4,7.3-7.6S16.6,42.9,12.5,42.9L12.5,42.9z M12.5,62.4
		C6.2,62.4,1,57.1,1,50.5s5.2-11.9,11.5-11.9c6.4,0,11.5,5.3,11.5,11.9S18.9,62.4,12.5,62.4L12.5,62.4z"/>
	<path d="M12.5,13.2c-4,0-7.3,3.4-7.3,7.6s3.3,7.6,7.3,7.6s7.3-3.4,7.3-7.6C19.9,16.6,16.6,13.2,12.5,13.2L12.5,13.2z M12.5,32.6
		C6.2,32.6,1,27.3,1,20.8S6.2,8.9,12.5,8.9c6.4,0,11.5,5.3,11.5,11.9S18.9,32.6,12.5,32.6L12.5,32.6z"/>
	<path d="M12.5,72.7c-4,0-7.3,3.4-7.3,7.6s3.3,7.6,7.3,7.6s7.3-3.4,7.3-7.6C19.9,76.1,16.6,72.7,12.5,72.7L12.5,72.7z M12.5,92.2
		C6.2,92.2,1,86.8,1,80.2c0-6.6,5.2-11.9,11.5-11.9c6.4,0,11.5,5.3,11.5,11.9C24.1,86.8,18.9,92.2,12.5,92.2L12.5,92.2z"/>
	<path d="M97.2,20.8H37.4c-1,0-1.8-1.3-1.8-3c0-1.6,0.8-3,1.8-3h59.8c1,0,1.8,1.3,1.8,3C99,19.4,98.2,20.8,97.2,20.8"/>
	<path d="M37.4,53.5c-1,0-1.8-1.3-1.8-3s0.8-3,1.8-3h59.8c1,0,1.8,1.3,1.8,3s-0.8,3-1.8,3H37.4z"/>
	<path d="M97.2,86.2H37.4c-1,0-1.8-1.3-1.8-3c0-1.6,0.8-3,1.8-3h59.8c1,0,1.8,1.3,1.8,3C99,84.9,98.2,86.2,97.2,86.2"/>
</g>
</svg>
