<?xml version="1.0" encoding="utf-8"?>
<!-- Generator: Adobe Illustrator 19.2.1, SVG Export Plug-In . SVG Version: 6.00 Build 0)  -->
<svg version="1.1" id="Layer_1" xmlns="http://www.w3.org/2000/svg" xmlns:xlink="http://www.w3.org/1999/xlink" x="0px" y="0px"
	 viewBox="0 0 100 100" style="enable-background:new 0 0 100 100;" xml:space="preserve">
<g>
	<path d="M84,37.6h-9.8V25.7C74.2,12.1,63.1,1,49.5,1S24.8,12.1,24.8,25.7v11.8H15c-1.3,0-2.3,1-2.3,2.4v56.8c0,1.3,1,2.3,2.3,2.3
		H84c1.3,0,2.3-1,2.3-2.3V39.9C86.3,38.6,85.3,37.6,84,37.6z M49.5,5.7c11,0,20,9,20,20v11.8H29.5V25.7C29.5,14.7,38.5,5.7,49.5,5.7
		z M81.5,42.2v52.1H17.4V42.2H81.5z"/>
	<path d="M47.2,65.8v10.5c0,1.3,1,2.3,2.3,2.3c1.3,0,2.4-1,2.4-2.3V65.8c1.3-0.9,2.1-2.2,2.1-3.7c0-2.5-1.9-4.4-4.4-4.4
		c-2.5,0-4.4,1.9-4.4,4.4C45.1,63.6,45.9,65,47.2,65.8z M49.5,61.7c0.1,0,0.3,0.2,0.3,0.4c0,0.1-0.1,0.3-0.3,0.3
		c-0.1,0-0.3-0.1-0.3-0.3C49.2,61.9,49.4,61.7,49.5,61.7z"/>
</g>
</svg>
