<?xml version="1.0" encoding="utf-8"?>
<!-- Generator: Adobe Illustrator 22.0.1, SVG Export Plug-In . SVG Version: 6.00 Build 0)  -->
<svg version="1.1" id="Layer_1" xmlns="http://www.w3.org/2000/svg" xmlns:xlink="http://www.w3.org/1999/xlink" x="0px" y="0px"
	 viewBox="0 0 100 100" enable-background="new 0 0 100 100" xml:space="preserve">
<g id="Page-1">
	<g id="Icons" transform="translate(-292.000000, 0.000000)">
		<g id="Group-7" transform="translate(292.000000, 0.000000)">
			<g id="Stroke-4">
				<path d="M50,99c-0.7,0-1.3-0.3-1.7-0.9c-1.3-1.9-31-47.1-31-64.4C17.3,15.7,32,1,50,1s32.7,14.7,32.7,32.7
					c0,17.3-29.7,62.5-31,64.4C51.3,98.7,50.7,99,50,99z M50,5.1c-15.8,0-28.6,12.8-28.6,28.6c0,13.9,22.2,49.5,28.6,59.5
					c6.4-10,28.6-45.7,28.6-59.5C78.6,17.9,65.8,5.1,50,5.1z"/>
			</g>
			<g id="Stroke-6">
				<path d="M50,48c-7.9,0-14.3-6.4-14.3-14.3S42.1,19.4,50,19.4s14.3,6.4,14.3,14.3S57.9,48,50,48z M50,23.5
					c-5.6,0-10.2,4.6-10.2,10.2S44.4,43.9,50,43.9c5.6,0,10.2-4.6,10.2-10.2S55.6,23.5,50,23.5z"/>
			</g>
		</g>
	</g>
</g>
</svg>
