<?xml version="1.0" encoding="utf-8"?>
<!-- Generator: Adobe Illustrator 22.1.0, SVG Export Plug-In . SVG Version: 6.00 Build 0)  -->
<svg version="1.1" id="Layer_1" xmlns="http://www.w3.org/2000/svg" xmlns:xlink="http://www.w3.org/1999/xlink" x="0px" y="0px"
	 viewBox="0 0 100 100" style="enable-background:new 0 0 100 100;" xml:space="preserve">
<g>
	<path d="M99,13.2c0-2.4-1.6-4.1-4.1-4.1H5.1C2.6,9.2,1,10.8,1,13.2v8.2c0,2.5,1.6,4.1,4.1,4.1h89.8c2.5,0,4.1-1.6,4.1-4.1V13.2z"/>
	<path d="M99,45.9c0-2.5-1.6-4.1-4.1-4.1H5.1c-2.5,0-4.1,1.6-4.1,4.1v8.2c0,2.5,1.6,4.1,4.1,4.1h89.8c2.5,0,4.1-1.6,4.1-4.1V45.9z"
		/>
	<path d="M99,78.6c0-2.5-1.6-4.1-4.1-4.1H5.1c-2.5,0-4.1,1.6-4.1,4.1v8.2c0,2.5,1.6,4.1,4.1,4.1h89.8c2.5,0,4.1-1.6,4.1-4.1V78.6z"
		/>
</g>
</svg>
