<?xml version="1.0" encoding="utf-8"?>
<!-- Generator: Adobe Illustrator 19.2.1, SVG Export Plug-In . SVG Version: 6.00 Build 0)  -->
<svg version="1.1" id="Layer_1" xmlns="http://www.w3.org/2000/svg" xmlns:xlink="http://www.w3.org/1999/xlink" x="0px" y="0px"
	 viewBox="0 0 100 100" style="enable-background:new 0 0 100 100;" xml:space="preserve">
<path d="M88.8,29.6H11.2C5.6,29.6,1,34.2,1,39.8v24.5c0,5.6,4.6,10.2,10.2,10.2h10.2v18.4c0,1.1,0.9,2,2,2h53.1c1.1,0,2-0.9,2-2
	V74.5h10.2c5.6,0,10.2-4.6,10.2-10.2V39.8C99,34.2,94.4,29.6,88.8,29.6z M74.5,90.8h-49V62.2h49V90.8z M94.9,64.3
	c0,3.4-2.7,6.1-6.1,6.1H78.6V60.2c0-1.1-0.9-2-2-2H23.5c-1.1,0-2,0.9-2,2v10.2H11.2c-3.4,0-6.1-2.7-6.1-6.1V39.8
	c0-3.4,2.7-6.1,6.1-6.1h77.6c3.4,0,6.1,2.7,6.1,6.1C94.9,39.8,94.9,64.3,94.9,64.3z"/>
<path d="M15.3,37.8c-3.4,0-6.1,2.7-6.1,6.1s2.7,6.1,6.1,6.1s6.1-2.7,6.1-6.1S18.7,37.8,15.3,37.8z M15.3,45.9c-1.1,0-2-0.9-2-2
	s0.9-2,2-2s2,0.9,2,2S16.4,45.9,15.3,45.9z"/>
<g>
	<path d="M68.4,70.4H31.6c-1.1,0-2-0.9-2-2s0.9-2,2-2h36.8c1.1,0,2,0.9,2,2S69.5,70.4,68.4,70.4z"/>
</g>
<g>
	<path d="M68.4,78.6H31.6c-1.1,0-2-0.9-2-2s0.9-2,2-2h36.8c1.1,0,2,0.9,2,2S69.5,78.6,68.4,78.6z"/>
</g>
<g>
	<path d="M68.4,86.8H31.6c-1.1,0-2-0.9-2-2s0.9-2,2-2h36.8c1.1,0,2,0.9,2,2C70.4,85.8,69.5,86.8,68.4,86.8z"/>
</g>
<path d="M78.4,18.6c-0.1-0.2-0.3-0.5-0.4-0.7L65.7,5.7c-0.2-0.2-0.4-0.3-0.7-0.4c-0.2-0.1-0.5-0.2-0.8-0.2H23.5c-1.1,0-2,0.9-2,2
	v16.3c0,1.1,0.9,2,2,2s2-0.9,2-2V9.2h36.8v10.2c0,1.1,0.9,2,2,2h10.2v2c0,1.1,0.9,2,2,2s2-0.9,2-2v-4.1
	C78.6,19.1,78.5,18.8,78.4,18.6z M66.3,12.1l5.3,5.3h-5.3V12.1z"/>
</svg>
