<?xml version="1.0" encoding="utf-8"?>
<!-- Generator: Adobe Illustrator 19.2.1, SVG Export Plug-In . SVG Version: 6.00 Build 0)  -->
<svg version="1.1" id="Layer_1" xmlns="http://www.w3.org/2000/svg" xmlns:xlink="http://www.w3.org/1999/xlink" x="0px" y="0px"
	 viewBox="0 0 100 100" style="enable-background:new 0 0 100 100;" xml:space="preserve">
<g>
	<path d="M30.9,44.4c0-0.7-0.4-1.4-0.9-1.9c-1.1-0.9-2.8-0.8-3.7,0.3l-9.5,11.4c-0.7-6.9,0.9-13.9,4.6-19.9
		c4.7-7.9,12.5-13.7,21.3-15.8c11.5-2.7,23.7,1.1,31.7,10.1c0.5,0.5,1.2,0.9,1.9,0.9c0.7,0,1.4-0.2,1.9-0.7c0.5-0.5,0.9-1.2,0.9-1.9
		c0-0.7-0.2-1.4-0.7-1.9C69,14.6,54.9,10.1,41.4,13.4c-10.1,2.4-19.1,9.1-24.6,18.3c-3.4,5.6-5.3,11.9-5.5,18.3l-5.5-8.2
		c-0.4-0.6-1-1-1.7-1.2c-0.7-0.1-1.4,0-1.9,0.4c-0.6,0.4-1,1-1.2,1.7c-0.1,0.7,0,1.4,0.4,1.9l11.5,17.1c0.5,0.7,1.3,1.1,2.1,1.1h0.1
		c0.8,0,1.6-0.4,2-0.9l13.1-15.7C30.7,45.7,30.9,45.1,30.9,44.4z"/>
	<path d="M98.6,59.5L87.1,42.4c-0.5-0.7-1.3-1.1-2.1-1.1c-0.5,0-1,0.2-1.5,0.5c-0.2,0.1-0.4,0.2-0.5,0.4L69.8,57.9
		c-0.5,0.5-0.7,1.2-0.6,1.9c0.1,0.7,0.4,1.3,0.9,1.8c0.5,0.5,1.2,0.7,1.9,0.6c0.7-0.1,1.3-0.4,1.8-0.9l8.9-10.6
		c-0.4,14.2-11.1,27.4-25.3,30.7c-10.9,2.6-22.2-0.6-30.2-8.5c-1-1-2.6-1-3.7-0.1L23.5,73c-0.9,1.1-0.9,2.6,0.1,3.7
		c7.1,7,16.4,10.9,26.3,10.9c3.1,0,6-0.3,8.8-1c16.1-3.8,27.9-17.7,29.2-33.7l6.3,9.5c0.5,0.9,1.5,1.2,2.2,1.2c0.5,0,1-0.2,1.4-0.4
		c0.6-0.4,1.1-0.9,1.3-1.6C99.1,60.8,99,60.1,98.6,59.5z"/>
</g>
</svg>
