<?xml version="1.0" encoding="utf-8"?>
<!-- Generator: Adobe Illustrator 19.2.1, SVG Export Plug-In . SVG Version: 6.00 Build 0)  -->
<svg version="1.1" id="Layer_1" xmlns="http://www.w3.org/2000/svg" xmlns:xlink="http://www.w3.org/1999/xlink" x="0px" y="0px"
	 viewBox="0 0 100 100" enable-background="new 0 0 100 100" xml:space="preserve">
<path id="arrow_down" d="M0.8,50.5c0,1.8,0.9,3.4,2.2,4.5c0.1,0.2,0.3,0.4,0.5,0.6l32.6,32.6c2.2,2.2,5.9,2.2,8.1,0
	c2.3-2.3,2.3-5.9,0-8.1L20.5,56.3h72.6c3.2,0,5.8-2.6,5.8-5.8c0-3.2-2.6-5.8-5.8-5.8H20.5L44.3,21c2.2-2.2,2.2-5.9,0-8.1
	c-2.3-2.3-5.9-2.2-8.1,0L3.5,45.5C3.3,45.6,3.2,45.8,3,46C1.7,47,0.8,48.6,0.8,50.5z"/>
</svg>
