<?xml version="1.0" encoding="utf-8"?>
<!-- Generator: Adobe Illustrator 19.2.1, SVG Export Plug-In . SVG Version: 6.00 Build 0)  -->
<svg version="1.1" id="Layer_1" xmlns="http://www.w3.org/2000/svg" xmlns:xlink="http://www.w3.org/1999/xlink" x="0px" y="0px"
	 viewBox="0 0 100 100" enable-background="new 0 0 100 100" xml:space="preserve">
<path id="arrow_down" d="M96.6,46c-0.1-0.2-0.3-0.3-0.4-0.5L63.5,12.8c-2.2-2.2-5.9-2.2-8.1,0c-2.3,2.3-2.3,5.9,0,8.1l23.8,23.8H6.6
	c-3.1,0-5.8,2.6-5.8,5.8c0,3.2,2.6,5.8,5.8,5.8h72.6L55.4,80c-2.2,2.2-2.2,5.9,0,8.1c2.3,2.3,5.9,2.2,8.1,0l32.6-32.6
	c0.2-0.2,0.3-0.4,0.5-0.6c1.3-1.1,2.2-2.7,2.2-4.5C98.8,48.6,98,47,96.6,46z"/>
</svg>
