<?xml version="1.0" encoding="utf-8"?>
<!-- Generator: Adobe Illustrator 19.2.1, SVG Export Plug-In . SVG Version: 6.00 Build 0)  -->
<svg version="1.1" id="Layer_1" xmlns="http://www.w3.org/2000/svg" xmlns:xlink="http://www.w3.org/1999/xlink" x="0px" y="0px"
	 viewBox="0 0 100 100" style="enable-background:new 0 0 100 100;" xml:space="preserve">
<g id="XMLID_822_">
	<path id="XMLID_823_" d="M95.2,21.4c-3.5-4.2-10.1-5.9-22.5-5.9H27.4c-12.8,0-19.4,1.8-22.9,6.3C1,26.2,1,32.6,1,41.5v17
		c0,17.2,4.1,26,26.4,26h45.3c10.8,0,16.8-1.5,20.7-5.2c4-3.8,5.7-10,5.7-20.8v-17C99,32.1,98.7,25.7,95.2,21.4z M63.9,52.3
		L43.4,63.1c-0.5,0.2-1,0.4-1.5,0.4c-0.6,0-1.1-0.2-1.6-0.5c-0.9-0.6-1.5-1.6-1.5-2.7V38.9c0-1.1,0.6-2.1,1.5-2.7
		c0.9-0.6,2.1-0.6,3.1-0.1L64,46.8c1,0.5,1.7,1.6,1.7,2.8C65.6,50.7,65,51.8,63.9,52.3z"/>
</g>
</svg>
