<?xml version="1.0" encoding="utf-8"?>
<!-- Generator: Adobe Illustrator 19.2.1, SVG Export Plug-In . SVG Version: 6.00 Build 0)  -->
<svg version="1.1" id="Layer_1" xmlns="http://www.w3.org/2000/svg" xmlns:xlink="http://www.w3.org/1999/xlink" x="0px" y="0px"
	 viewBox="0 0 100 100" style="enable-background:new 0 0 100 100;" xml:space="preserve">
<g id="_x2D_" transform="translate(387.000000, 1638.000000)">
	<g id="Stroke-1">
		<path d="M-337-1539c-13.1,0-25.4-5.1-34.6-14.4c-9.3-9.3-14.4-21.6-14.4-34.6s5.1-25.4,14.4-34.6c9.3-9.3,21.6-14.4,34.6-14.4
			c13.1,0,25.4,5.1,34.6,14.4l0,0l0,0c9.3,9.3,14.4,21.6,14.4,34.6s-5.1,25.4-14.4,34.6C-311.6-1544.1-323.9-1539-337-1539z
			 M-337-1628.8c-10.9,0-21.2,4.2-28.9,12c-7.7,7.7-12,18-12,28.9s4.2,21.2,12,28.9c7.7,7.7,18,12,28.9,12s21.2-4.2,28.9-12
			c7.7-7.7,12-18,12-28.9s-4.2-21.2-12-28.9l0,0C-315.8-1624.6-326.1-1628.8-337-1628.8z"/>
	</g>
	<g id="Stroke-3">
		<path d="M-316.6-1583.9h-40.8c-2.3,0-4.1-1.8-4.1-4.1c0-2.3,1.8-4.1,4.1-4.1h40.8c2.3,0,4.1,1.8,4.1,4.1
			C-312.5-1585.7-314.3-1583.9-316.6-1583.9z"/>
	</g>
</g>
</svg>
