<?xml version="1.0" encoding="utf-8"?>
<!-- Generator: Adobe Illustrator 19.2.1, SVG Export Plug-In . SVG Version: 6.00 Build 0)  -->
<svg version="1.1" id="Layer_1" xmlns="http://www.w3.org/2000/svg" xmlns:xlink="http://www.w3.org/1999/xlink" x="0px" y="0px"
	 viewBox="0 0 100 100" style="enable-background:new 0 0 100 100;" xml:space="preserve">
<g>
	<path d="M84.6,15.4C75.4,6.1,63.1,1,50,1C37,1,24.7,6.1,15.4,15.4C6.1,24.6,1,37,1,50s5.1,25.3,14.4,34.6C24.6,93.9,36.9,99,50,99
		c13.1,0,25.4-5.1,34.6-14.4C93.9,75.4,99,63,99,50S93.9,24.7,84.6,15.4z M78.9,79c-7.7,7.8-18,12-28.9,12c-10.9,0-21.2-4.3-28.9-12
		c-7.8-7.7-12-18-12-28.9s4.3-21.2,12-28.9c7.7-7.8,18-12,28.9-12c10.9,0,21.2,4.2,28.9,12c7.8,7.7,12,18,12,28.9S86.6,71.3,78.9,79
		z"/>
	<path d="M70.4,45.9H54.1V29.6c0-2.3-1.8-4.1-4.1-4.1s-4.1,1.8-4.1,4.1v16.3H29.6c-2.3,0-4.1,1.8-4.1,4.1c0,2.3,1.8,4.1,4.1,4.1
		h16.3v16.3c0,2.3,1.8,4.1,4.1,4.1s4.1-1.8,4.1-4.1V54.1h16.3c2.3,0,4.1-1.8,4.1-4.1C74.5,47.7,72.7,45.9,70.4,45.9z"/>
</g>
</svg>
