<svg enable-background="new 0 0 30.051 30.051" viewBox="0 0 30.051 30.051" xmlns="http://www.w3.org/2000/svg"><path d="m19.982 14.438-6.24-4.536c-.229-.166-.533-.191-.784-.062-.253.128-.411.388-.411.669v9.069c0 .284.158.543.411.671.107.054.224.081.342.081.154 0 .31-.049.442-.146l6.24-4.532c.197-.145.312-.369.312-.607.001-.242-.117-.465-.312-.607z"/><path d="m15.026.002c-8.3 0-15.026 6.726-15.026 15.026 0 8.297 6.726 15.021 15.026 15.021 8.298 0 15.025-6.725 15.025-15.021.001-8.3-6.727-15.026-15.025-15.026zm0 27.54c-6.912 0-12.516-5.601-12.516-12.514 0-6.91 5.604-12.518 12.516-12.518 6.911 0 12.514 5.607 12.514 12.518.001 6.913-5.603 12.514-12.514 12.514z"/></svg>