<svg enable-background="new 0 0 100 100" viewBox="0 0 100 100" xmlns="http://www.w3.org/2000/svg"><path d="m84.5 14.8c-9.2-9.1-21.4-13.9-34.5-13.8-13.2.2-25.5 5.5-34.8 14.9-9.4 9.5-14.4 21.9-14.2 34.9.2 13.2 5.4 25.4 14.5 34.4 9 8.9 20.9 13.8 33.6 13.8h.9c13.1-.2 25.5-5.5 34.8-14.9 9.4-9.5 14.4-21.9 14.2-34.9-.2-13.2-5.4-25.4-14.5-34.4zm-2.5 66.5c-8.6 8.7-19.9 13.6-32 13.8-12 .2-23.3-4.3-31.7-12.7-8.4-8.3-13.1-19.5-13.4-31.6-.2-12 4.4-23.4 13-32.1 8.7-8.7 20-13.6 32.1-13.8h.8c11.7 0 22.6 4.5 30.9 12.6 8.4 8.3 13.1 19.6 13.4 31.7.2 12-4.5 23.4-13.1 32.1z"/><path d="m50 58.4c1.1 0 2-.9 2-2v-29.9c0-1.1-.9-2-2-2s-2 .9-2 2v29.9c0 1.1.9 2 2 2z"/><circle cx="50" cy="71.4" r="4.1"/></svg>